<?xml version="1.0" encoding="UTF-8" standalone="no"?>
<!-- Created with Inkscape (http://www.inkscape.org/) -->

<svg
   width="49.999996"
   height="49.999996"
   viewBox="0 0 13.229165 13.229166"
   version="1.1"
   id="svg5"
   inkscape:version="1.3.2 (091e20e, 2023-11-25, custom)"
   inkscape:export-filename="D:/Pobrane/"
   sodipodi:docname="eraser.svg"
   xmlns:inkscape="http://www.inkscape.org/namespaces/inkscape"
   xmlns:sodipodi="http://sodipodi.sourceforge.net/DTD/sodipodi-0.dtd"
   xmlns="http://www.w3.org/2000/svg"
   xmlns:svg="http://www.w3.org/2000/svg">
  <sodipodi:namedview
     id="namedview7"
     pagecolor="#505050"
     bordercolor="#eeeeee"
     borderopacity="1"
     inkscape:showpageshadow="false"
     inkscape:pageopacity="0"
     inkscape:pagecheckerboard="false"
     inkscape:deskcolor="#505050"
     inkscape:document-units="px"
     showgrid="true"
     showborder="true"
     inkscape:zoom="16"
     inkscape:cx="34.75"
     inkscape:cy="39.96875"
     inkscape:window-width="1920"
     inkscape:window-height="1001"
     inkscape:window-x="1911"
     inkscape:window-y="-9"
     inkscape:window-maximized="1"
     inkscape:current-layer="svg5"
     showguides="true">
    <inkscape:grid
       type="xygrid"
       id="grid182"
       empcolor="#ffffff"
       empopacity="0.5372549"
       color="#ffffff"
       opacity="0.1372549"
       spacingx="2.6458333"
       spacingy="2.6458333"
       visible="true"
       enabled="true"
       originx="-15.874999"
       originy="-31.749999"
       units="px"
       empspacing="6" />
    <inkscape:grid
       id="grid79"
       units="px"
       originx="-15.874999"
       originy="-31.749999"
       spacingx="0.26458333"
       spacingy="0.26458333"
       empcolor="#ffffff"
       empopacity="0.21960784"
       color="#ffffff"
       opacity="0.09019608"
       empspacing="10"
       dotted="false"
       gridanglex="30"
       gridanglez="30"
       visible="true"
       enabled="true"
       snapvisiblegridlinesonly="true" />
    <inkscape:grid
       type="axonomgrid"
       id="grid5"
       units="mm"
       originx="-15.874999"
       originy="-31.749999"
       spacingx="0"
       spacingy="1"
       empcolor="#ffffff"
       empopacity="0.2745098"
       color="#ffffff"
       opacity="0.1254902"
       empspacing="5"
       dotted="false"
       gridanglex="30"
       gridanglez="30"
       visible="true"
       enabled="false" />
    <sodipodi:guide
       position="12.964583,5.8208326"
       orientation="1,0"
       id="guide1"
       inkscape:locked="false" />
    <sodipodi:guide
       position="6.6145831,6.6145828"
       orientation="1,0"
       id="guide5"
       inkscape:locked="false" />
  </sodipodi:namedview>
  <defs
     id="defs2">
    <inkscape:path-effect
       effect="powerstroke"
       id="path-effect38"
       is_visible="true"
       lpeversion="1.3"
       scale_width="1"
       interpolator_type="CentripetalCatmullRom"
       interpolator_beta="0.75"
       start_linecap_type="round"
       end_linecap_type="round"
       offset_points="78.378413,0.049609373"
       linejoin_type="spiro"
       miter_limit="4"
       not_jump="true"
       sort_points="true"
       message="&lt;b&gt;Ctrl + click&lt;/b&gt; on existing node and move it" />
    <inkscape:path-effect
       effect="simplify"
       id="path-effect37"
       is_visible="true"
       lpeversion="1.3"
       threshold="0.012"
       steps="1"
       smooth_angles="0"
       helper_size="0"
       simplify_individual_paths="false"
       simplify_just_coalesce="false"
       step="1" />
    <inkscape:path-effect
       effect="powerstroke"
       id="path-effect36"
       is_visible="true"
       lpeversion="1.3"
       scale_width="1"
       interpolator_type="CentripetalCatmullRom"
       interpolator_beta="0.75"
       start_linecap_type="round"
       end_linecap_type="round"
       offset_points="42.44204,0.049609373"
       linejoin_type="spiro"
       miter_limit="4"
       not_jump="true"
       sort_points="true"
       message="&lt;b&gt;Ctrl + click&lt;/b&gt; on existing node and move it" />
    <inkscape:path-effect
       effect="simplify"
       id="path-effect35"
       is_visible="true"
       lpeversion="1.3"
       threshold="0.012"
       steps="1"
       smooth_angles="0"
       helper_size="0"
       simplify_individual_paths="false"
       simplify_just_coalesce="false"
       step="1" />
    <inkscape:path-effect
       effect="powerstroke"
       id="path-effect34"
       is_visible="true"
       lpeversion="1.3"
       scale_width="1"
       interpolator_type="CentripetalCatmullRom"
       interpolator_beta="0.75"
       start_linecap_type="round"
       end_linecap_type="round"
       offset_points="53.102238,0.049609373"
       linejoin_type="spiro"
       miter_limit="4"
       not_jump="true"
       sort_points="true"
       message="&lt;b&gt;Ctrl + click&lt;/b&gt; on existing node and move it" />
    <inkscape:path-effect
       effect="simplify"
       id="path-effect33"
       is_visible="true"
       lpeversion="1.3"
       threshold="0.012"
       steps="1"
       smooth_angles="0"
       helper_size="0"
       simplify_individual_paths="false"
       simplify_just_coalesce="false"
       step="1" />
    <inkscape:path-effect
       effect="powerstroke"
       id="path-effect32"
       is_visible="true"
       lpeversion="1.3"
       scale_width="1"
       interpolator_type="CentripetalCatmullRom"
       interpolator_beta="0.75"
       start_linecap_type="round"
       end_linecap_type="round"
       offset_points="35.20608,0.049609373"
       linejoin_type="spiro"
       miter_limit="4"
       not_jump="true"
       sort_points="true"
       message="&lt;b&gt;Ctrl + click&lt;/b&gt; on existing node and move it" />
    <inkscape:path-effect
       effect="simplify"
       id="path-effect31"
       is_visible="true"
       lpeversion="1.3"
       threshold="0.012"
       steps="1"
       smooth_angles="0"
       helper_size="0"
       simplify_individual_paths="false"
       simplify_just_coalesce="false"
       step="1" />
    <inkscape:path-effect
       effect="powerstroke"
       id="path-effect30"
       is_visible="true"
       lpeversion="1.3"
       scale_width="1"
       interpolator_type="CentripetalCatmullRom"
       interpolator_beta="0.75"
       start_linecap_type="round"
       end_linecap_type="round"
       offset_points="44.483784,0.049609373"
       linejoin_type="spiro"
       miter_limit="4"
       not_jump="true"
       sort_points="true"
       message="&lt;b&gt;Ctrl + click&lt;/b&gt; on existing node and move it" />
    <inkscape:path-effect
       effect="simplify"
       id="path-effect29"
       is_visible="true"
       lpeversion="1.3"
       threshold="0.012"
       steps="1"
       smooth_angles="0"
       helper_size="0"
       simplify_individual_paths="false"
       simplify_just_coalesce="false"
       step="1" />
    <inkscape:path-effect
       effect="powerstroke"
       id="path-effect28"
       is_visible="true"
       lpeversion="1.3"
       scale_width="1"
       interpolator_type="CentripetalCatmullRom"
       interpolator_beta="0.75"
       start_linecap_type="round"
       end_linecap_type="round"
       offset_points="1.5836307,0.037207029"
       linejoin_type="spiro"
       miter_limit="4"
       not_jump="true"
       sort_points="true"
       message="&lt;b&gt;Ctrl + click&lt;/b&gt; on existing node and move it" />
    <inkscape:path-effect
       effect="simplify"
       id="path-effect27"
       is_visible="true"
       lpeversion="1.3"
       threshold="0.012"
       steps="1"
       smooth_angles="0"
       helper_size="0"
       simplify_individual_paths="false"
       simplify_just_coalesce="false"
       step="1" />
    <inkscape:path-effect
       effect="powerstroke"
       id="path-effect26"
       is_visible="true"
       lpeversion="1.3"
       scale_width="1"
       interpolator_type="CentripetalCatmullRom"
       interpolator_beta="0.75"
       start_linecap_type="round"
       end_linecap_type="round"
       offset_points="26.540757,0.037207029"
       linejoin_type="spiro"
       miter_limit="4"
       not_jump="true"
       sort_points="true"
       message="&lt;b&gt;Ctrl + click&lt;/b&gt; on existing node and move it" />
    <inkscape:path-effect
       effect="simplify"
       id="path-effect25"
       is_visible="true"
       lpeversion="1.3"
       threshold="0.012"
       steps="1"
       smooth_angles="0"
       helper_size="0"
       simplify_individual_paths="false"
       simplify_just_coalesce="false"
       step="1" />
    <inkscape:path-effect
       effect="powerstroke"
       id="path-effect24"
       is_visible="true"
       lpeversion="1.3"
       scale_width="1"
       interpolator_type="CentripetalCatmullRom"
       interpolator_beta="0.75"
       start_linecap_type="round"
       end_linecap_type="round"
       offset_points="30.432794,0.053743487"
       linejoin_type="spiro"
       miter_limit="4"
       not_jump="true"
       sort_points="true"
       message="&lt;b&gt;Ctrl + click&lt;/b&gt; on existing node and move it" />
    <inkscape:path-effect
       effect="simplify"
       id="path-effect23"
       is_visible="true"
       lpeversion="1.3"
       threshold="0.012"
       steps="1"
       smooth_angles="0"
       helper_size="0"
       simplify_individual_paths="false"
       simplify_just_coalesce="false"
       step="1" />
    <inkscape:path-effect
       effect="powerstroke"
       id="path-effect22"
       is_visible="true"
       lpeversion="1.3"
       scale_width="1"
       interpolator_type="CentripetalCatmullRom"
       interpolator_beta="0.75"
       start_linecap_type="butt"
       end_linecap_type="butt"
       offset_points="20.42772,0.053743487"
       linejoin_type="spiro"
       miter_limit="4"
       not_jump="true"
       sort_points="true"
       message="&lt;b&gt;Ctrl + click&lt;/b&gt; on existing node and move it" />
    <inkscape:path-effect
       effect="simplify"
       id="path-effect21"
       is_visible="true"
       lpeversion="1.3"
       threshold="0.012"
       steps="1"
       smooth_angles="0"
       helper_size="0"
       simplify_individual_paths="false"
       simplify_just_coalesce="false"
       step="1" />
    <inkscape:path-effect
       effect="powerstroke"
       id="path-effect20"
       is_visible="true"
       lpeversion="1.3"
       scale_width="1"
       interpolator_type="CentripetalCatmullRom"
       interpolator_beta="0.75"
       start_linecap_type="square"
       end_linecap_type="square"
       offset_points="78.109897,0.099798382"
       linejoin_type="spiro"
       miter_limit="4"
       not_jump="true"
       sort_points="true"
       message="&lt;b&gt;Ctrl + click&lt;/b&gt; on existing node and move it" />
    <inkscape:path-effect
       effect="simplify"
       id="path-effect19"
       is_visible="true"
       lpeversion="1.3"
       threshold="0.012"
       steps="1"
       smooth_angles="0"
       helper_size="0"
       simplify_individual_paths="false"
       simplify_just_coalesce="false"
       step="1" />
    <inkscape:path-effect
       effect="powerstroke"
       id="path-effect18"
       is_visible="true"
       lpeversion="1.3"
       scale_width="1"
       interpolator_type="CentripetalCatmullRom"
       interpolator_beta="0.75"
       start_linecap_type="square"
       end_linecap_type="square"
       offset_points="81.249612,0.099798382"
       linejoin_type="spiro"
       miter_limit="4"
       not_jump="true"
       sort_points="true"
       message="&lt;b&gt;Ctrl + click&lt;/b&gt; on existing node and move it" />
    <inkscape:path-effect
       effect="simplify"
       id="path-effect17"
       is_visible="true"
       lpeversion="1.3"
       threshold="0.012"
       steps="1"
       smooth_angles="0"
       helper_size="0"
       simplify_individual_paths="false"
       simplify_just_coalesce="false"
       step="1" />
    <inkscape:path-effect
       effect="powerstroke"
       id="path-effect16"
       is_visible="true"
       lpeversion="1.3"
       scale_width="1"
       interpolator_type="CentripetalCatmullRom"
       interpolator_beta="0.75"
       start_linecap_type="square"
       end_linecap_type="square"
       offset_points="100.20725,0.074848787"
       linejoin_type="spiro"
       miter_limit="4"
       not_jump="true"
       sort_points="true"
       message="&lt;b&gt;Ctrl + click&lt;/b&gt; on existing node and move it" />
    <inkscape:path-effect
       effect="simplify"
       id="path-effect15"
       is_visible="true"
       lpeversion="1.3"
       threshold="0.012"
       steps="1"
       smooth_angles="0"
       helper_size="0"
       simplify_individual_paths="false"
       simplify_just_coalesce="false"
       step="1" />
    <inkscape:path-effect
       effect="powerstroke"
       id="path-effect14"
       is_visible="true"
       lpeversion="1.3"
       scale_width="1"
       interpolator_type="CentripetalCatmullRom"
       interpolator_beta="0.75"
       start_linecap_type="square"
       end_linecap_type="square"
       offset_points="25.940599,0.074848787"
       linejoin_type="spiro"
       miter_limit="4"
       not_jump="true"
       sort_points="true"
       message="&lt;b&gt;Ctrl + click&lt;/b&gt; on existing node and move it" />
    <inkscape:path-effect
       effect="simplify"
       id="path-effect13"
       is_visible="true"
       lpeversion="1.3"
       threshold="0.012"
       steps="1"
       smooth_angles="0"
       helper_size="0"
       simplify_individual_paths="false"
       simplify_just_coalesce="false"
       step="1" />
    <inkscape:path-effect
       effect="powerstroke"
       id="path-effect12"
       is_visible="true"
       lpeversion="1.3"
       scale_width="1"
       interpolator_type="CentripetalCatmullRom"
       interpolator_beta="0.75"
       start_linecap_type="square"
       end_linecap_type="square"
       offset_points="149.9055,0.074848787"
       linejoin_type="spiro"
       miter_limit="4"
       not_jump="true"
       sort_points="true"
       message="&lt;b&gt;Ctrl + click&lt;/b&gt; on existing node and move it" />
    <inkscape:path-effect
       effect="simplify"
       id="path-effect11"
       is_visible="true"
       lpeversion="1.3"
       threshold="0.012"
       steps="1"
       smooth_angles="0"
       helper_size="0"
       simplify_individual_paths="false"
       simplify_just_coalesce="false"
       step="1" />
    <inkscape:path-effect
       effect="powerstroke"
       id="path-effect10"
       is_visible="true"
       lpeversion="1.3"
       scale_width="1"
       interpolator_type="CentripetalCatmullRom"
       interpolator_beta="0.75"
       start_linecap_type="square"
       end_linecap_type="square"
       offset_points="71.5,0.074848787"
       linejoin_type="spiro"
       miter_limit="4"
       not_jump="true"
       sort_points="true"
       message="&lt;b&gt;Ctrl + click&lt;/b&gt; on existing node and move it" />
    <inkscape:path-effect
       effect="simplify"
       id="path-effect9"
       is_visible="true"
       lpeversion="1.3"
       threshold="0.012"
       steps="1"
       smooth_angles="0"
       helper_size="0"
       simplify_individual_paths="false"
       simplify_just_coalesce="false"
       step="1" />
    <inkscape:path-effect
       effect="powerstroke"
       id="path-effect7"
       is_visible="true"
       lpeversion="1.3"
       scale_width="1"
       interpolator_type="CentripetalCatmullRom"
       interpolator_beta="0.75"
       start_linecap_type="square"
       end_linecap_type="square"
       offset_points="43.054864,0.074848787"
       linejoin_type="spiro"
       miter_limit="4"
       not_jump="true"
       sort_points="true"
       message="&lt;b&gt;Ctrl + click&lt;/b&gt; on existing node and move it" />
    <inkscape:path-effect
       effect="simplify"
       id="path-effect6"
       is_visible="true"
       lpeversion="1.3"
       threshold="0.012"
       steps="1"
       smooth_angles="0"
       helper_size="0"
       simplify_individual_paths="false"
       simplify_just_coalesce="false"
       step="1" />
    <inkscape:path-effect
       effect="fillet_chamfer"
       id="path-effect5"
       is_visible="true"
       lpeversion="1"
       nodesatellites_param="F,0,0,1,0,0.89650153,0,1 @ F,0,0,1,0,0.93695957,0,1 @ F,0,0,1,0,2.2042384e-06,0,1 @ F,0,0,1,0,0.6704006,0,1"
       radius="2.2042384e-06"
       unit="px"
       method="auto"
       mode="F"
       chamfer_steps="1"
       flexible="false"
       use_knot_distance="true"
       apply_no_radius="true"
       apply_with_radius="true"
       only_selected="false"
       hide_knots="false" />
    <inkscape:path-effect
       effect="fillet_chamfer"
       id="path-effect4"
       is_visible="true"
       lpeversion="1"
       nodesatellites_param="F,0,0,1,0,2.1915837e-06,0,1 @ F,0,0,1,0,2.1915837e-06,0,1 @ F,0,0,1,0,2.1915837e-06,0,1 @ F,0,0,1,0,0.65053962,0,1"
       radius="2.1915837e-06"
       unit="px"
       method="auto"
       mode="F"
       chamfer_steps="1"
       flexible="false"
       use_knot_distance="true"
       apply_no_radius="true"
       apply_with_radius="true"
       only_selected="false"
       hide_knots="false" />
    <inkscape:path-effect
       effect="fillet_chamfer"
       id="path-effect3"
       is_visible="true"
       lpeversion="1"
       nodesatellites_param="F,0,0,1,0,2.1915837e-06,0,1 @ F,0,0,1,0,2.1915837e-06,0,1 @ F,0,0,1,0,2.1915837e-06,0,1 @ F,0,0,1,0,2.1915837e-06,0,1 @ F,0,0,1,0,2.1915837e-06,0,1 @ F,0,0,1,0,0.79374918,0,1 @ F,0,0,1,0,0.79374918,0,1 @ F,0,0,1,0,2.1915837e-06,0,1"
       radius="2.1915837e-06"
       unit="px"
       method="auto"
       mode="F"
       chamfer_steps="1"
       flexible="false"
       use_knot_distance="true"
       apply_no_radius="true"
       apply_with_radius="true"
       only_selected="false"
       hide_knots="false" />
    <inkscape:path-effect
       effect="fillet_chamfer"
       id="path-effect2"
       is_visible="true"
       lpeversion="1"
       nodesatellites_param="F,0,0,1,0,0.79374999,0,1 @ F,0,0,1,0,0.79375001,0,1 @ F,0,0,1,0,0.79375001,0,1 @ F,0,0,1,0,2.2042384e-06,0,1 @ F,0,0,1,0,2.2042384e-06,0,1 @ F,0,0,1,0,0.81361016,0,1 @ F,0,0,1,0,0.81361016,0,1 @ F,0,0,1,0,0.79374999,0,1"
       radius="2.2042384e-06"
       unit="px"
       method="auto"
       mode="F"
       chamfer_steps="1"
       flexible="false"
       use_knot_distance="true"
       apply_no_radius="true"
       apply_with_radius="true"
       only_selected="false"
       hide_knots="false" />
    <inkscape:path-effect
       effect="dashed_stroke"
       id="path-effect1"
       is_visible="true"
       lpeversion="1"
       numberdashes="3"
       holefactor="0.25"
       splitsegments="true"
       halfextreme="true"
       unifysegment="true"
       message="Add &lt;b&gt;&quot;Fill Between Many LPE&quot;&lt;/b&gt; to add fill." />
    <inkscape:path-effect
       effect="copy_rotate"
       starting_point="93.171624,116.32264"
       origin="89.864327,116.32264"
       id="path-effect8"
       is_visible="true"
       lpeversion="1.2"
       lpesatellites=""
       method="normal"
       num_copies="6"
       starting_angle="0"
       rotation_angle="72"
       gap="0"
       copies_to_360="true"
       mirror_copies="false"
       split_items="false"
       link_styles="false" />
    <inkscape:perspective
       sodipodi:type="inkscape:persp3d"
       inkscape:vp_x="0 : -135.27084 : 1"
       inkscape:vp_y="0 : 1000 : 0"
       inkscape:vp_z="209.99999 : -135.27084 : 1"
       inkscape:persp3d-origin="105 : -184.77084 : 1"
       id="perspective1" />
    <rect
       x="250"
       y="199.99998"
       width="120"
       height="59.999996"
       id="rect34" />
    <filter
       style="color-interpolation-filters:sRGB"
       inkscape:label="Drop Shadow"
       id="filter57"
       x="-0.10028686"
       y="-0.026078297"
       width="2.0362976"
       height="1.2694757">
      <feFlood
         result="flood"
         in="SourceGraphic"
         flood-opacity="1.000000"
         flood-color="rgb(151,151,151)"
         id="feFlood56" />
      <feGaussianBlur
         result="blur"
         in="SourceGraphic"
         stdDeviation="0.100000"
         id="feGaussianBlur56" />
      <feOffset
         result="offset"
         in="blur"
         dx="2.000000"
         dy="2.000000"
         id="feOffset56" />
      <feComposite
         result="comp1"
         operator="in"
         in="flood"
         in2="offset"
         id="feComposite56" />
      <feComposite
         result="comp2"
         operator="over"
         in="SourceGraphic"
         in2="comp1"
         id="feComposite57" />
    </filter>
  </defs>
  <g
     id="g3"
     inkscape:label="eraser"
     transform="rotate(45,6.767717,6.7338338)"
     inkscape:transform-center-x="0.026597681"
     inkscape:transform-center-y="0.21288253">
    <path
       id="rect1"
       transform="translate(-3.0526394)"
       d="m 8.8340015,2.6458333 h 1.6259835 c 0.517468,3e-7 0.936959,0.4194913 0.936959,0.9369595 l 0,6.1225759 -0.583179,0.4835013 c 0,0 -0.366171,0.382184 -0.631055,0.678906 H 8.6079006 c -0.3702518,0 -0.6704003,-0.300148 -0.6704006,-0.6704 l 0,-6.6550412 c 0,-0.4951241 0.4013774,-0.8965015 0.8965015,-0.8965015 z"
       style="fill:#339fcf;fill-opacity:1;stroke:none;stroke-width:0.892951;stroke-linecap:round;stroke-linejoin:round;stroke-dasharray:none;paint-order:markers stroke fill"
       sodipodi:nodetypes="ssscccscss" />
    <path
       id="rect2"
       transform="translate(-3.042709)"
       d="m 7.9375022,6.8791661 3.4395788,0 c 2e-6,-6e-7 3e-6,6e-7 3e-6,2.2e-6 l 0.0099,2.577855 -0.795649,0.6539957 c -0.249179,0.249179 0.05609,-0.04162 -3e-6,2e-6 L 9.794155,10.867775 8.5880396,10.847915 C 8.2288054,10.842 7.9375003,10.556659 7.9375,10.197376 V 6.8791683 Z"
       style="fill:#da572e;fill-opacity:1;stroke:none;stroke-width:1.12942;stroke-linecap:round;stroke-linejoin:round;stroke-dasharray:none;paint-order:markers stroke fill"
       sodipodi:nodetypes="cccccccsccc" />
  </g>
  <g
     id="path5">
    <path
       style="color:#000000;fill:#bd2d00;stroke-linecap:round;stroke-linejoin:round;-inkscape-stroke:none;paint-order:markers stroke fill"
       d="m 3.9335938,9.5605469 c -0.1097382,0 -0.1761268,0.00678 -0.1796009,0.00584 0.023553,0.023553 0.1308547,0.1308547 0.1717129,0.1717129 l 0.2802204,0.2814313 h 7.2237618 c 0.126758,-5.08e-4 0.229086,-0.1037107 0.228515,-0.2304685 -5.05e-4,-0.1259958 -0.102519,-0.2280106 -0.228515,-0.2285156 z"
       id="path20"
       sodipodi:nodetypes="cccccccc" />
    <path
       style="color:#000000;fill:#339fcf;stroke-linecap:round;stroke-linejoin:round;-inkscape-stroke:none;paint-order:markers stroke fill"
       d="M 3.9336994,9.7895827 H 11.429087"
       id="path21" />
  </g>
  <path
     d="m 8.2749787,9.0541324 c 5.766e-4,-9.877e-4 0.0012,-0.00206 0.00188,-0.00322 0.044879,-0.076886 0.093253,-0.1522067 0.1528753,-0.2183184 0.059622,-0.066112 0.1278616,-0.1237846 0.195899,-0.1811992 0.030554,-0.025783 0.061168,-0.050253 0.09132,-0.073405 0.033827,-0.025975 0.067491,-0.050615 0.1002889,-0.073846 0.034898,-0.024719 0.069378,-0.048239 0.1024955,-0.070317 l 0.062278,-0.041519 -0.083037,-0.124556 -0.062278,0.041519 c -0.034028,0.022685 -0.069702,0.047016 -0.1059843,0.072715 -0.034098,0.024152 -0.069339,0.04994 -0.1049342,0.077272 -0.031728,0.024363 -0.064158,0.050277 -0.096692,0.077731 L 8.383854,8.7858049 8.1297441,9.3029476 Z"
     id="path-1"
     style="fill:#bd2d00;fill-opacity:1;fill-rule:nonzero;stroke:none;stroke-width:1.9;stroke-linecap:round;stroke-linejoin:round;stroke-dasharray:none;stroke-opacity:1;paint-order:markers stroke fill"
     inkscape:original-d="M 8.2103364,9.0164003 C 8.3703201,8.7414028 8.6232178,8.5415493 8.8782179,8.3715492"
     inkscape:path-effect="#path-effect13;#path-effect14"
     sodipodi:nodetypes="cc" />
  <path
     d="m 10.009963,8.6440729 c 3.83e-4,-0.00144 7.87e-4,-0.00297 0.0012,-0.00457 3.38e-4,-0.00126 7.46e-4,-0.00278 0.0012,-0.00436 3.45e-4,-0.00127 7.56e-4,-0.00279 0.0012,-0.00436 3.5e-4,-0.00128 7.65e-4,-0.00279 0.0012,-0.00435 3.55e-4,-0.00128 7.74e-4,-0.0028 0.0012,-0.00435 3.59e-4,-0.00128 7.83e-4,-0.0028 0.0012,-0.00434 3.64e-4,-0.00129 7.91e-4,-0.0028 0.0012,-0.00434 3.69e-4,-0.00129 7.99e-4,-0.0028 0.0012,-0.00433 3.72e-4,-0.00129 8.07e-4,-0.0028 0.0012,-0.00433 3.76e-4,-0.00129 8.15e-4,-0.00279 0.0013,-0.00432 3.8e-4,-0.00129 8.22e-4,-0.00279 0.0013,-0.00432 3.84e-4,-0.00129 8.3e-4,-0.00279 0.0013,-0.00431 3.88e-4,-0.00129 8.38e-4,-0.00279 0.0013,-0.00431 3.91e-4,-0.00129 8.45e-4,-0.00279 0.0013,-0.0043 3.95e-4,-0.00129 8.52e-4,-0.00278 0.0013,-0.00429 3.99e-4,-0.00129 8.6e-4,-0.00278 0.0013,-0.00429 4.02e-4,-0.00129 8.67e-4,-0.00278 0.0013,-0.00428 4.06e-4,-0.00129 8.74e-4,-0.00278 0.0013,-0.00428 4.09e-4,-0.00129 8.81e-4,-0.00277 0.0014,-0.00427 4.13e-4,-0.00129 8.89e-4,-0.00277 0.0014,-0.00427 4.16e-4,-0.00129 8.96e-4,-0.00277 0.0014,-0.00426 4.2e-4,-0.00129 9.03e-4,-0.00277 0.0014,-0.00426 4.23e-4,-0.00128 9.1e-4,-0.00276 0.0014,-0.00425 4.26e-4,-0.00128 9.17e-4,-0.00276 0.0014,-0.00425 4.3e-4,-0.00128 9.24e-4,-0.00276 0.0014,-0.00424 4.34e-4,-0.00128 9.32e-4,-0.00276 0.0014,-0.00424 4.36e-4,-0.00128 9.38e-4,-0.00275 0.0014,-0.00423 4.41e-4,-0.00128 9.46e-4,-0.00275 0.0015,-0.00423 4.43e-4,-0.00128 9.52e-4,-0.00275 0.0015,-0.00422 4.46e-4,-0.00128 9.59e-4,-0.00274 0.0015,-0.00422 4.5e-4,-0.00128 9.67e-4,-0.00274 0.0015,-0.00421 4.53e-4,-0.00128 9.73e-4,-0.00274 0.0015,-0.00421 4.57e-4,-0.00127 9.8e-4,-0.00274 0.0015,-0.0042 4.6e-4,-0.00127 9.87e-4,-0.00273 0.0015,-0.0042 4.63e-4,-0.00127 9.94e-4,-0.00273 0.0015,-0.00419 4.67e-4,-0.00127 0.001,-0.00273 0.0015,-0.00419 4.7e-4,-0.00127 0.001,-0.00272 0.0015,-0.00418 4.74e-4,-0.00127 0.001,-0.00272 0.0016,-0.00418 4.76e-4,-0.00127 0.001,-0.00272 0.0016,-0.00417 4.8e-4,-0.00127 0.001,-0.00272 0.0016,-0.00417 4.84e-4,-0.00127 0.001,-0.00271 0.0016,-0.00416 4.87e-4,-0.00126 0.001,-0.00271 0.0016,-0.00416 4.9e-4,-0.00126 0.001,-0.00271 0.0016,-0.00415 4.94e-4,-0.00126 0.0011,-0.0027 0.0016,-0.00415 4.96e-4,-0.00126 0.0011,-0.0027 0.0016,-0.00414 5e-4,-0.00126 0.0011,-0.0027 0.0016,-0.00414 5.03e-4,-0.00126 0.0011,-0.00269 0.0016,-0.00413 5.06e-4,-0.00126 0.0011,-0.00269 0.0017,-0.00413 5.09e-4,-0.00126 0.0011,-0.00269 0.0017,-0.00412 5.12e-4,-0.00126 0.0011,-0.00269 0.0017,-0.00412 5.16e-4,-0.00126 0.0011,-0.00268 0.0017,-0.00411 5.19e-4,-0.00125 0.0011,-0.00268 0.0017,-0.00411 5.22e-4,-0.00125 0.0011,-0.00268 0.0017,-0.0041 5.25e-4,-0.00125 0.0011,-0.00267 0.0017,-0.0041 5.29e-4,-0.00125 0.0011,-0.00267 0.0017,-0.00409 5.32e-4,-0.00125 0.0011,-0.00267 0.0017,-0.00409 5.36e-4,-0.00125 0.0011,-0.00267 0.0017,-0.00408 5.38e-4,-0.00125 0.0011,-0.00266 0.0018,-0.00408 5.41e-4,-0.00125 0.0012,-0.00266 0.0018,-0.00407 5.44e-4,-0.00125 0.0012,-0.00266 0.0018,-0.00407 5.48e-4,-0.00125 0.0012,-0.00266 0.0018,-0.00406 5.52e-4,-0.00124 0.0012,-0.00265 0.0018,-0.00406 5.55e-4,-0.00124 0.0012,-0.00265 0.0018,-0.00405 5.58e-4,-0.00124 0.0012,-0.00265 0.0018,-0.00405 5.61e-4,-0.00124 0.0012,-0.00264 0.0018,-0.00404 5.64e-4,-0.00124 0.0012,-0.00264 0.0018,-0.00404 5.67e-4,-0.00124 0.0012,-0.00264 0.0018,-0.00403 5.7e-4,-0.00124 0.0012,-0.00264 0.0019,-0.00403 5.74e-4,-0.00124 0.0012,-0.00263 0.0019,-0.00403 5.77e-4,-0.00124 0.0012,-0.00263 0.0019,-0.00402 5.8e-4,-0.00124 0.0012,-0.00263 0.0019,-0.00402 5.83e-4,-0.00123 0.0012,-0.00263 0.0019,-0.00401 5.86e-4,-0.00123 0.0012,-0.00262 0.0019,-0.00401 5.9e-4,-0.00123 0.0013,-0.00262 0.0019,-0.004 5.92e-4,-0.00123 0.0013,-0.00262 0.0019,-0.004 5.96e-4,-0.00123 0.0013,-0.00262 0.0019,-0.00399 5.99e-4,-0.00123 0.0013,-0.00261 0.0019,-0.00399 6.02e-4,-0.00123 0.0013,-0.00261 0.0019,-0.00398 6.05e-4,-0.00123 0.0013,-0.00261 0.002,-0.00398 6.08e-4,-0.00123 0.0013,-0.00261 0.002,-0.00397 6.12e-4,-0.00123 0.0013,-0.0026 0.002,-0.00397 6.15e-4,-0.00123 0.0013,-0.0026 0.002,-0.00396 6.18e-4,-0.00123 0.0013,-0.0026 0.002,-0.00396 6.22e-4,-0.00123 0.0013,-0.0026 0.002,-0.00396 6.25e-4,-0.00123 0.0013,-0.00259 0.002,-0.00395 6.28e-4,-0.00123 0.0013,-0.00259 0.002,-0.00395 6.31e-4,-0.00123 0.0013,-0.00259 0.002,-0.00394 6.36e-4,-0.00123 0.0013,-0.00259 0.002,-0.00394 6.39e-4,-0.00123 0.0013,-0.00259 0.002,-0.00393 6.43e-4,-0.00123 0.0014,-0.00259 0.0021,-0.00393 6.46e-4,-0.00123 0.0014,-0.00258 0.0021,-0.00392 6.5e-4,-0.00123 0.0014,-0.00258 0.0021,-0.00392 6.54e-4,-0.00123 0.0014,-0.00258 0.0021,-0.00392 6.58e-4,-0.00123 0.0014,-0.00258 0.0021,-0.00391 6.63e-4,-0.00123 0.0014,-0.00258 0.0021,-0.00391 6.67e-4,-0.00123 0.0014,-0.00258 0.0021,-0.0039 6.72e-4,-0.00124 0.0014,-0.00258 0.0021,-0.0039 6.78e-4,-0.00124 0.0014,-0.00259 0.0021,-0.00389 6.85e-4,-0.00125 0.0014,-0.00259 0.0021,-0.00389 6.93e-4,-0.00125 0.0014,-0.0026 0.0021,-0.00388 0.0028,-0.0051 0.0036,-0.00644 0.0043,-0.00776 0.02421,-0.043251 0.04971,-0.085097 0.07605,-0.1254163 0.02818,-0.043133 0.05742,-0.084678 0.08724,-0.1246045 0.03204,-0.042885 0.0649,-0.084096 0.09808,-0.1236102 0.03576,-0.042587 0.07208,-0.083443 0.108401,-0.1225329 0.01725,-0.018562 0.03431,-0.036529 0.05109,-0.05387 0.0087,-0.00901 0.01756,-0.017749 0.02629,-0.026153 0.009,-0.00866 0.01809,-0.017134 0.02695,-0.025285 0.0093,-0.00857 0.01944,-0.017743 0.02845,-0.025952 0.01169,-0.010658 0.02275,-0.02081 0.03375,-0.031326 0.01087,-0.010381 0.02099,-0.020457 0.03062,-0.030623 0.0094,-0.00995 0.01792,-0.019501 0.02566,-0.028755 0.0068,-0.00814 0.01271,-0.015673 0.01779,-0.022438 l 0.04491,-0.05988 -0.11976,-0.089816 -0.04491,0.05988 c -0.0036,0.00481 -0.0079,0.010255 -0.01287,0.016228 -0.0057,0.00678 -0.0121,0.014025 -0.01949,0.021829 -0.0076,0.008 -0.01589,0.016295 -0.02535,0.025334 -0.0097,0.00926 -0.01968,0.018443 -0.03117,0.028919 -0.0086,0.0078 -0.0193,0.017536 -0.02895,0.026415 -0.0094,0.00861 -0.01932,0.017892 -0.02939,0.027577 -0.0098,0.00942 -0.01989,0.019414 -0.03008,0.029923 -0.01747,0.018061 -0.03523,0.036755 -0.0532,0.056095 -0.03784,0.040729 -0.07585,0.083466 -0.113382,0.1281698 -0.03483,0.041479 -0.06947,0.084914 -0.103361,0.1302762 -0.03155,0.042234 -0.06261,0.086354 -0.09264,0.1323265 -0.02808,0.042976 -0.05537,0.087743 -0.0814,0.1342494 -7.75e-4,0.00139 -0.0015,0.00273 -0.0023,0.00409 -0.0031,0.0056 -0.0038,0.00694 -0.0046,0.00834 -7.93e-4,0.00144 -0.0015,0.00279 -0.0023,0.00418 -7.93e-4,0.00145 -0.0015,0.0028 -0.0023,0.00418 -7.94e-4,0.00146 -0.0015,0.00281 -0.0023,0.00419 -7.93e-4,0.00147 -0.0015,0.00282 -0.0023,0.00419 -7.92e-4,0.00147 -0.0015,0.00282 -0.0023,0.0042 -7.9e-4,0.00148 -0.0015,0.00283 -0.0023,0.00421 -7.89e-4,0.00148 -0.0015,0.00284 -0.0022,0.00421 -7.86e-4,0.00148 -0.0015,0.00284 -0.0022,0.00422 -7.84e-4,0.00149 -0.0015,0.00285 -0.0022,0.00422 -7.82e-4,0.00149 -0.0015,0.00285 -0.0022,0.00423 -7.8e-4,0.0015 -0.0015,0.00286 -0.0022,0.00423 -7.77e-4,0.0015 -0.0015,0.00286 -0.0022,0.00424 -7.75e-4,0.0015 -0.0015,0.00287 -0.0022,0.00425 -7.71e-4,0.00151 -0.0015,0.00287 -0.0022,0.00425 -7.68e-4,0.00151 -0.0015,0.00288 -0.0022,0.00426 -7.66e-4,0.00151 -0.0015,0.00288 -0.0022,0.00426 -7.63e-4,0.00151 -0.0015,0.00289 -0.0022,0.00427 -7.6e-4,0.00152 -0.0014,0.00289 -0.0021,0.00427 -7.57e-4,0.00152 -0.0014,0.0029 -0.0021,0.00428 -7.54e-4,0.00152 -0.0014,0.0029 -0.00212,0.00429 -7.513e-4,0.00153 -0.00143,0.00291 -0.00211,0.00429 -7.483e-4,0.00153 -0.00142,0.00291 -0.0021,0.0043 -7.452e-4,0.00153 -0.00142,0.00291 -0.00209,0.0043 -7.42e-4,0.00153 -0.00141,0.00292 -0.00208,0.00431 -7.389e-4,0.00154 -0.0014,0.00292 -0.00207,0.00431 -7.357e-4,0.00154 -0.0014,0.00293 -0.00206,0.00432 -7.325e-4,0.00154 -0.00139,0.00293 -0.00205,0.00433 -7.294e-4,0.00155 -0.00139,0.00294 -0.00204,0.00433 -7.261e-4,0.00155 -0.00138,0.00294 -0.00203,0.00434 -7.229e-4,0.00155 -0.00137,0.00295 -0.00202,0.00434 -7.196e-4,0.00155 -0.00137,0.00295 -0.00201,0.00435 -7.163e-4,0.00156 -0.00136,0.00295 -0.002,0.00436 -7.13e-4,0.00156 -0.00135,0.00296 -0.00199,0.00436 -7.097e-4,0.00156 -0.00135,0.00296 -0.00198,0.00437 -7.062e-4,0.00156 -0.00134,0.00297 -0.00197,0.00437 -7.029e-4,0.00157 -0.00133,0.00297 -0.00196,0.00438 -6.995e-4,0.00157 -0.00133,0.00298 -0.00195,0.00438 -6.961e-4,0.00157 -0.00132,0.00298 -0.00194,0.00439 -6.926e-4,0.00157 -0.00131,0.00298 -0.00193,0.0044 -6.893e-4,0.00158 -0.00131,0.00299 -0.00192,0.0044 -6.857e-4,0.00158 -0.0013,0.00299 -0.00191,0.00441 -6.823e-4,0.00158 -0.00129,0.003 -0.0019,0.00441 -6.787e-4,0.00158 -0.00129,0.003 -0.00189,0.00442 -6.753e-4,0.00159 -0.00128,0.00301 -0.00188,0.00443 -6.717e-4,0.00159 -0.00127,0.00301 -0.00187,0.00443 -6.682e-4,0.00159 -0.00126,0.00301 -0.00186,0.00444 -6.646e-4,0.0016 -0.00126,0.00302 -0.00185,0.00444 -6.611e-4,0.0016 -0.00125,0.00302 -0.00184,0.00445 -6.575e-4,0.0016 -0.00124,0.00303 -0.00183,0.00446 -6.539e-4,0.0016 -0.00124,0.00303 -0.00182,0.00446 -6.502e-4,0.00161 -0.00123,0.00304 -0.00181,0.00447 -6.466e-4,0.00161 -0.00122,0.00304 -0.0018,0.00447 -6.43e-4,0.00161 -0.00122,0.00305 -0.00179,0.00448 -6.393e-4,0.00161 -0.00121,0.00305 -0.00178,0.00449 -6.356e-4,0.00162 -0.0012,0.00305 -0.00177,0.00449 -6.319e-4,0.00162 -0.00119,0.00306 -0.00176,0.0045 -6.282e-4,0.00162 -0.00119,0.00306 -0.00175,0.0045 -6.245e-4,0.00162 -0.00118,0.00307 -0.00173,0.00451 -6.208e-4,0.00163 -0.00117,0.00307 -0.00172,0.00452 -6.171e-4,0.00163 -0.00117,0.00308 -0.00171,0.00452 -6.133e-4,0.00163 -0.00116,0.00308 -0.0017,0.00453 -6.095e-4,0.00163 -0.00115,0.00309 -0.00169,0.00453 -6.057e-4,0.00164 -0.00114,0.00309 -0.00168,0.00454 -6.02e-4,0.00164 -0.00114,0.00309 -0.00167,0.00455 -5.982e-4,0.00164 -0.00113,0.0031 -0.00166,0.00455 -5.943e-4,0.00164 -0.00112,0.0031 -0.00165,0.00456 -5.904e-4,0.00165 -0.00111,0.00311 -0.00164,0.00456 -5.866e-4,0.00165 -0.00111,0.00311 -0.00162,0.00457 -5.828e-4,0.00165 -0.0011,0.00312 -0.00161,0.00458 -5.789e-4,0.00166 -0.00109,0.00312 -0.0016,0.00458 -5.75e-4,0.00166 -0.00108,0.00313 -0.00159,0.00459 -5.712e-4,0.00166 -0.00108,0.00313 -0.00158,0.0046 -5.673e-4,0.00166 -0.00107,0.00314 -0.00157,0.0046 -5.634e-4,0.00167 -0.00106,0.00314 -0.00156,0.00461 -5.595e-4,0.00167 -0.00105,0.00315 -0.00155,0.00461 -5.556e-4,0.00167 -0.00105,0.00315 -0.00153,0.00462 -5.517e-4,0.00167 -0.00104,0.00315 -0.00152,0.00463 -5.477e-4,0.00168 -0.00103,0.00316 -0.00151,0.00463 -5.439e-4,0.00168 -0.00102,0.00316 -0.0015,0.00464 -5.4e-4,0.00168 -0.00102,0.00317 -0.00149,0.00464 -5.36e-4,0.00169 -0.00101,0.00317 -0.00148,0.00465 -5.321e-4,0.00169 -0.001,0.00318 -0.00147,0.00466 -5.281e-4,0.00169 -9.93e-4,0.00318 -0.00145,0.00466 -5.242e-4,0.0017 -9.854e-4,0.00319 -0.00144,0.00467 -5.203e-4,0.0017 -9.778e-4,0.00319 -0.00143,0.00468 -5.165e-4,0.0017 -9.702e-4,0.0032 -0.00142,0.00468 -5.125e-4,0.00171 -9.624e-4,0.00321 -0.00141,0.00469 -5.088e-4,0.00171 -9.549e-4,0.00321 -0.0014,0.00469 -5.049e-4,0.00171 -9.473e-4,0.00322 -0.00138,0.0047 -5.012e-4,0.00172 -9.397e-4,0.00322 -0.00137,0.00471 -4.975e-4,0.00172 -9.322e-4,0.00323 -0.00136,0.00471 -4.939e-4,0.00173 -9.248e-4,0.00324 -0.00135,0.00472 -4.904e-4,0.00173 -9.174e-4,0.00324 -0.00134,0.00473 -4.871e-4,0.00174 -9.103e-4,0.00325 -0.00132,0.00473 -4.84e-4,0.00175 -9.033e-4,0.00326 -0.00131,0.00474 -4.811e-4,0.00176 -8.967e-4,0.00327 -0.0013,0.00474 -4.787e-4,0.00177 -8.904e-4,0.00328 -0.00129,0.00475 -4.771e-4,0.00178 -8.849e-4,0.0033 -0.00128,0.00476 -4.766e-4,0.0018 -8.806e-4,0.00332 -0.00126,0.00476 l -0.019189,0.072347 0.1446943,0.038379 z"
     id="path-1-7"
     style="fill:#bd2d00;fill-opacity:1;fill-rule:nonzero;stroke:none;stroke-width:1.9;stroke-linecap:round;stroke-linejoin:round;stroke-dasharray:none;stroke-opacity:1;paint-order:markers stroke fill"
     inkscape:original-d="M 9.9376162,8.6248836 C 10.040471,8.2349689 10.271339,7.9091812 10.547922,7.6230613 10.61766,7.5509184 10.68101,7.5070242 10.732165,7.4388181"
     inkscape:path-effect="#path-effect15;#path-effect16" />
  <path
     d="m 9.0500221,9.393288 c 6.47e-4,-3.281e-4 0.00132,-6.715e-4 0.00203,-0.00103 0.030424,-0.015428 0.060419,-0.031838 0.088487,-0.051225 0.028068,-0.019387 0.054534,-0.040977 0.081072,-0.06241 0.00415,-0.00335 0.00826,-0.0067 0.012333,-0.010047 0.012211,-0.010031 0.024227,-0.020136 0.036089,-0.030232 0.020943,-0.017826 0.049733,-0.042891 0.070676,-0.060716 0.014236,-0.012154 0.028371,-0.024058 0.042556,-0.035622 0.00167,-0.00136 0.00335,-0.00273 0.00505,-0.0041 l 0.1214418,-0.061024 0.043889,-0.2682577 -0.1214419,0.061024 c -6.328e-4,3.18e-4 -0.00129,6.505e-4 -0.00198,9.97e-4 -0.030086,0.015118 -0.059733,0.031249 -0.087432,0.050393 -0.027699,0.019144 -0.053793,0.040492 -0.079975,0.061664 -0.0019,0.00154 -0.00379,0.00307 -0.00566,0.0046 -0.015794,0.012876 -0.031179,0.025842 -0.046035,0.038525 -0.027019,0.023068 -0.043429,0.037454 -0.070446,0.060521 -0.011277,0.0096 -0.022361,0.018916 -0.033414,0.027995 -0.00368,0.00302 -0.00736,0.00603 -0.01105,0.009 L 8.974074,9.185278 8.9278964,9.4552196 Z"
     id="path-1-9"
     style="fill:#bd2d00;fill-opacity:1;fill-rule:nonzero;stroke:none;stroke-width:1.9;stroke-linecap:round;stroke-linejoin:round;stroke-dasharray:none;stroke-opacity:1;paint-order:markers stroke fill"
     inkscape:original-d="M 9.0048851,9.3042803 C 9.1783092,9.2167557 9.3075463,9.0435553 9.4770082,8.9588243"
     inkscape:path-effect="#path-effect17;#path-effect18" />
  <path
     d="m 10.343135,9.3968545 c 5.54e-4,-5.71e-4 0.0011,-0.00117 0.0017,-0.0018 0.02016,-0.020748 0.04097,-0.04092 0.06354,-0.059018 0.02257,-0.018098 0.04636,-0.034601 0.07002,-0.051243 0.002,-0.0014 0.004,-0.00279 0.006,-0.00417 0.002,-0.00138 0.004,-0.00276 0.0059,-0.00413 0.01605,-0.0111 0.03246,-0.022101 0.04935,-0.033246 0.03367,-0.022214 0.06765,-0.043954 0.101321,-0.066169 0.01883,-0.012422 0.03804,-0.025304 0.05725,-0.038665 0.0022,-0.00153 0.0044,-0.00306 0.0066,-0.00461 l 0.0953,-0.094974 0.01443,-0.2686981 -0.0953,0.094974 c -5.61e-4,5.591e-4 -0.0011,0.00115 -0.0018,0.00176 -0.03881,0.038676 -0.08242,0.072068 -0.127278,0.1035308 -0.002,0.0014 -0.004,0.00278 -0.006,0.00416 -0.01742,0.012119 -0.03519,0.024038 -0.05321,0.035927 -0.03367,0.022214 -0.06765,0.043954 -0.101321,0.066168 -0.01766,0.011651 -0.03535,0.023507 -0.05297,0.035696 -0.0022,0.00151 -0.0044,0.00303 -0.0066,0.00456 -0.0022,0.00153 -0.0044,0.00308 -0.0066,0.00463 l -0.09619,0.099005 -0.02048,0.2753168 z"
     id="path-1-6"
     style="fill:#bd2d00;fill-opacity:1;fill-rule:nonzero;stroke:none;stroke-width:1.9;stroke-linecap:round;stroke-linejoin:round;stroke-dasharray:none;stroke-opacity:1;paint-order:markers stroke fill"
     inkscape:original-d="M 10.271557,9.3273107 C 10.420178,9.1738034 10.639395,9.0861403 10.789741,8.9357939"
     inkscape:path-effect="#path-effect19;#path-effect20" />
  <path
     d="m 11.438375,8.2415426 c 4.44e-4,-4.106e-4 9.47e-4,-8.756e-4 0.0015,-0.00139 0.02401,-0.022197 0.04637,-0.04609 0.06741,-0.071115 0.0014,-0.00164 0.0028,-0.00329 0.0041,-0.00494 0.0014,-0.00165 0.0027,-0.0033 0.0041,-0.00496 0.0014,-0.00166 0.0027,-0.00332 0.004,-0.00498 0.0018,-0.00222 0.0036,-0.00444 0.0053,-0.00667 0.0031,-0.00391 0.0061,-0.00782 0.0092,-0.011741 0.01298,-0.016886 0.02533,-0.034022 0.03716,-0.051215 0.01312,-0.019063 0.02567,-0.038283 0.03776,-0.057397 0.01441,-0.022771 0.02837,-0.045687 0.04196,-0.068132 0.01636,-0.027025 0.03196,-0.053033 0.04812,-0.079041 0.01195,-0.019243 0.02392,-0.038004 0.03616,-0.056329 0.003,-0.00444 0.0059,-0.00882 0.0089,-0.013168 0.0018,-0.00265 0.0034,-0.0051 0.0048,-0.00732 0.0021,-0.00324 0.004,-0.0064 0.0058,-0.00935 0.0027,-0.00433 0.0053,-0.00869 0.0078,-0.012732 0.0038,-0.0063 0.0074,-0.012243 0.01107,-0.018125 0.0038,-0.00609 0.0074,-0.011885 0.01111,-0.017478 0.0028,-0.00428 0.0056,-0.00833 0.0083,-0.01218 0.0023,-0.00323 0.0045,-0.0062 0.0066,-0.00896 0.0017,-0.00221 0.0033,-0.00417 0.0049,-0.00592 0.01129,-0.010671 0.01797,-0.015998 0.02479,-0.021059 0.0076,-0.00561 0.01529,-0.010889 0.02305,-0.015875 0.0089,-0.00571 0.01788,-0.011052 0.0268,-0.016065 0.01049,-0.0059 0.02097,-0.011387 0.03123,-0.016503 0.01262,-0.00629 0.02512,-0.012132 0.03716,-0.017525 0.01672,-0.0075 0.03334,-0.014486 0.04885,-0.02084 0.01016,-0.00416 0.02023,-0.00821 0.02908,-0.011749 l -0.03992,-0.0998 c -0.0089,0.00358 -0.01935,0.00776 -0.02992,0.012089 -0.01612,0.00661 -0.03389,0.014076 -0.05205,0.022214 -0.01307,0.00586 -0.02695,0.012334 -0.04117,0.019425 -0.01156,0.00577 -0.02364,0.012087 -0.03593,0.018998 -0.01045,0.00588 -0.02125,0.012291 -0.03216,0.019292 -0.0095,0.00611 -0.01929,0.012774 -0.02907,0.02003 -0.0088,0.00655 -0.01778,0.013672 -0.02664,0.021428 -0.0023,0.00206 -0.0045,0.00411 -0.0065,0.0061 -0.0031,0.00309 -0.0059,0.00617 -0.0085,0.00915 -0.0031,0.00352 -0.0059,0.00703 -0.0086,0.010473 -0.0034,0.00432 -0.0065,0.00863 -0.0096,0.012905 -0.0036,0.00511 -0.0071,0.010232 -0.01045,0.015331 -0.0044,0.00666 -0.0086,0.013314 -0.01268,0.019936 -0.004,0.00638 -0.0078,0.012733 -0.0116,0.019002 -0.0025,0.00414 -0.005,0.00817 -0.0074,0.012146 -0.0017,0.00271 -0.0033,0.00528 -0.0048,0.00775 -0.0011,0.00172 -0.0021,0.00323 -0.003,0.00461 -0.0031,0.00457 -0.0063,0.00928 -0.0095,0.014043 -0.0131,0.019599 -0.02573,0.039417 -0.0381,0.059331 -0.01659,0.026706 -0.0327,0.053548 -0.04878,0.080109 -0.01351,0.02233 -0.02702,0.044485 -0.04083,0.066303 -0.01157,0.018274 -0.02333,0.036294 -0.03548,0.05394 -0.01095,0.015906 -0.02219,0.031495 -0.03385,0.046664 -0.0027,0.00352 -0.0054,0.00702 -0.0082,0.010506 -0.0016,0.00198 -0.0031,0.00396 -0.0047,0.00593 -0.0012,0.00147 -0.0024,0.00295 -0.0036,0.00442 -0.0012,0.00146 -0.0024,0.00293 -0.0036,0.00439 -0.0012,0.00146 -0.0024,0.00291 -0.0036,0.00436 z"
     id="path-1-4"
     style="fill:#bd2d00;fill-rule:nonzero;stroke:none;stroke-width:1.9;stroke-linecap:round;stroke-linejoin:round;paint-order:markers stroke fill"
     inkscape:original-d="m 11.401888,8.2020832 c 0.128516,-0.1184653 0.200419,-0.2795637 0.297656,-0.4216796 0.01621,-0.023688 0.04851,-0.084817 0.07441,-0.107487 0.06311,-0.055222 0.154409,-0.093183 0.231511,-0.1240234"
     inkscape:path-effect="#path-effect21;#path-effect22" />
</svg>
