<?xml version="1.0" encoding="UTF-8" standalone="no"?>
<!-- Created with Inkscape (http://www.inkscape.org/) -->

<svg
   width="40px"
   height="40px"
   viewBox="0 0 5.9552593 5.9552592"
   version="1.1"
   id="svg5"
   xmlns="http://www.w3.org/2000/svg"
   xmlns:svg="http://www.w3.org/2000/svg">
  <defs
     id="defs2" />
  <path
     style="color:#000000;fill:#ffffff;fill-opacity:1;stroke:#000000;stroke-width:0.100542;stroke-linecap:round;stroke-dasharray:none;stroke-opacity:1;paint-order:markers stroke fill"
     d="M 0.71235367,4.8579426 C 0.56357329,4.8743273 0.41733021,4.97063 0.29438493,5.0591145 0.17143964,5.1475991 0.07758805,5.2329427 0.07758805,5.2329426 a 0.084548,0.084548 0 0 0 -0.0058594,0.1191407 0.084548,0.084548 0 0 0 0.11914062,0.00586 c 0,0 0.0870255,-0.079957 0.20117188,-0.1621093 C 0.50618756,5.113681 0.65355863,5.0345372 0.73188492,5.0259114 0.82609002,5.0155374 0.92423186,5.0562694 1.0365725,5.1138024 1.148913,5.1713344 1.2708419,5.2451713 1.4174318,5.2622399 1.5413779,5.2766719 1.6404459,5.2472259 1.718213,5.2055989 1.79598,5.1639719 1.854548,5.1137879 1.921338,5.0786458 2.0549181,5.0083608 2.2327868,4.9668577 2.6908693,5.1391928 a 0.084548,0.084548 0 0 0 0.109375,-0.048828 0.084548,0.084548 0 0 0 -0.048828,-0.109375 C 2.2691203,4.7995453 2.013574,4.8405711 1.843213,4.9302083 1.758033,4.9750273 1.6961779,5.0241393 1.6381349,5.0552083 1.5800919,5.0862773 1.5279662,5.1048673 1.436963,5.0942713 1.337394,5.0826772 1.2318761,5.0234215 1.1146974,4.9634114 0.99751877,4.9034013 0.86448023,4.8411897 0.71235367,4.8579426 Z"
     id="path7" />
  <g
     id="g7"
     transform="matrix(0.04137034,0.01624747,-0.01619527,0.04150371,1.1834929,-3.5053504)"
     style="fill:#ffffff;fill-opacity:1;stroke:#000000;stroke-width:3.97182;stroke-dasharray:none;stroke-opacity:1">
    <path
       id="rect5"
       style="fill:#ffffff;fill-opacity:1;stroke:#000000;stroke-width:3.97182;stroke-linecap:round;stroke-dasharray:none;stroke-opacity:1;paint-order:markers stroke fill"
       d="m 98.47407,48.043982 c -1.900533,0.801191 -3.225974,2.674989 -3.225974,4.873675 l 0.0022,26.457603 -0.003,2.640786 c 0,0.02077 -7.66e-4,0.04175 -5.3e-4,0.06246 l 0.0041,32.844234 2.647035,-0.003 10.581529,0.004 2.64704,-0.003 -0.002,-32.870065 0.002,-0.02583 -10e-4,-2.651583 -0.002,-26.457603 c 0,-2.931581 -2.36076,-5.28677 -5.29234,-5.28677 l -5.28747,-0.0094 c -0.732893,0 -1.43631,0.157229 -2.069821,0.424292 z" />
    <path
       id="path6"
       style="fill:#ffffff;fill-opacity:1;stroke:#000000;stroke-width:3.97182;stroke-linecap:round;stroke-dasharray:none;stroke-opacity:1;paint-order:markers stroke fill"
       d="m 97.895828,119.06249 h 10.583342 2.64583 v 26.45832 c 0,5.29168 -7.13398,18.52085 -7.9375,18.52085 -0.80352,0 -7.937501,-13.22917 -7.9375,-18.52085 2e-6,-13.22916 -4e-6,-26.45832 -4e-6,-26.45832 z" />
    <path
       id="rect7"
       style="fill:#ffffff;fill-opacity:1;stroke:#000000;stroke-width:4.62104;stroke-linecap:round;stroke-opacity:1;paint-order:markers stroke fill"
       d="m 120.38543,49.889313 c 0.85269,0 1.53915,0.811229 1.53915,1.8189 v 39.458551 c 0,1.007671 -0.68646,1.8189 -1.53915,1.8189 -0.8527,0 -1.53916,-0.811229 -1.53916,-1.8189 V 51.708213 c 0,-1.007671 0.68646,-1.8189 1.53916,-1.8189 z" />
  </g>
</svg>
